{"title":"Special Dead (2006) DVDRip","uid":8352258,"size":980756416,"categoryP":"video","categoryS":"movies","magnet":"?xt=urn:btih:475ac02960836178085172d7e61c01553f4dc87c&amp;dn=Special+Dead+%282006%29+DVDRip&amp;tr=udp%3A%2F%2Ftracker.openbittorrent.com%3A80&amp;tr=udp%3A%2F%2Fopen.demonii.com%3A1337&amp;tr=udp%3A%2F%2Ftracker.coppersurfer.tk%3A6969&amp;tr=udp%3A%2F%2Fexodus.desync.com%3A6969","seeders":1,"leechers":1,"uploader":"RadioResearch","files":3,"time":1365376733,"description":"*******************************************************************************\n                          Special Dead (2006) DVDRip\n*******************************************************************************\n\n-------------------------------------------------------------------------------\n                              General Information\n-------------------------------------------------------------------------------\nType.................: Movie\n\n\n\nVideo Format.........: AVI\nVideo Bitrate........: 1579\nResolution...........: 720 x 404\nColor................: 8 bit\nFPS..................: 23.976\nSource...............: DVD 16x9\nOriginal Format......: NTSC\nGenre................: horror / Comedy\nIMDb Rating..........: 4.7\nMovie Information....: http://www.imdb.com/title/tt0765475/\n\n-------------------------------------------------------------------------------\n                               Post Information\n-------------------------------------------------------------------------------\nPosted by............: RadioResearch\nPosted on............: 4/7/2013\n\n-------------------------------------------------------------------------------\n                                 Release Notes\n-------------------------------------------------------------------------------\nSEEDBOX SUPPORTED!!\n\nWhen a zombie plague infects Camp Special Dude, a dude ranch for the mentally \nhandicapped, a ragtag band of campers and counselors struggles to survive the \nnight. Led by the indifferent, nun-chuck-wielding head counselor, Mac, and his \nwheelchair-bound sister Dale, the unlikely heroes fight their way off the \nmountain as, one by one, they're picked off and join the ranks of the walking \ndead. It's a campy stampede of blood, boobs and gore as some &quot;very special&quot; \npeople show that they can kick some serious undead ass. \n\nThis indie film is about as politically incorrect as it comes.  How about some \nundead 'Tards?  'Nuff said.\n\nEnjoy!\n\nRadioResearch\n\nGeneral\nComplete name                    : C:UsersDX-HOMEDownloadsSPECIAL_DEAD_DVD\nSPECIAL_DEAD_DVD.Rip.by.RadioResearch.avi\nFormat                           : AVI\nFormat/Info                      : Audio Video Interleave\nFile size                        : 935 MiB\nDuration                         : 1h 22mn\nOverall bit rate                 : 1 579 Kbps\nMovie name                       : SPECIAL_DEAD_DVD.Title1.DVDRip\nWriting application              : Lavf52.78.4\nOriginal source form/Name        : SPECIAL_DEAD_DVD\n\nVideo\nID                               : 0\nFormat                           : MPEG-4 Visual\nFormat profile                   : Advanced Simple@L5\nFormat settings, BVOP            : 2\nFormat settings, QPel            : No\nFormat settings, GMC             : No warppoints\nFormat settings, Matrix          : Default (H.263)\nMuxing mode                      : Packed bitstream\nCodec ID                         : XVID\nCodec ID/Hint                    : XviD\nDuration                         : 1h 22mn\nBit rate                         : 1 377 Kbps\nWidth                            : 720 pixels\nHeight                           : 404 pixels\nDisplay aspect ratio             : 16:9\nFrame rate                       : 23.976 fps\nColor space                      : YUV\nChroma subsampling               : 4:2:0\nBit depth                        : 8 bits\nScan type                        : Progressive\nCompression mode                 : Lossy\nBits/(Pixel*Frame)               : 0.197\nStream size                      : 815 MiB (87%)\nWriting library                  : XviD 1.2.1 (UTC 2008-12-04)\n\nAudio\nID                               : 1\nFormat                           : AC-3\nFormat/Info                      : Audio Coding 3\nMode extension                   : CM (complete main)\nCodec ID                         : 2000\nDuration                         : 1h 22mn\nBit rate mode                    : Constant\nBit rate                         : 192 Kbps\nChannel(s)                       : 2 channels\nChannel positions                : Front: L R\nSampling rate                    : 48.0 KHz\nBit depth                        : 16 bits\nCompression mode                 : Lossy\nStream size                      : 114 MiB (12%)\nAlignment                        : Aligned on interleaves\nInterleave, duration             : 32 ms (0.77 video frame)\nInterleave, preload duration     : 32 ms\n\n\n\n\n-------------------------------------------------------------------------------\nGenerated with Cool NFO Creator - http://fly.to/coolbeans\n-------------------------------------------------------------------------------\n","torrent":{"xt":"urn:btih:475ac02960836178085172d7e61c01553f4dc87c","amp;dn":"Special+Dead+%282006%29+DVDRip","amp;tr":["udp%3A%2F%2Ftracker.openbittorrent.com%3A80","udp%3A%2F%2Fopen.demonii.com%3A1337","udp%3A%2F%2Ftracker.coppersurfer.tk%3A6969","udp%3A%2F%2Fexodus.desync.com%3A6969"],"infoHash":"475ac02960836178085172d7e61c01553f4dc87c","infoHashBuffer":{"type":"Buffer","data":[71,90,192,41,96,131,97,120,8,81,114,215,230,28,1,85,63,77,200,124]},"announce":[],"urlList":[]}}